<?xml version="1.0" encoding="UTF-8" standalone="no"?>
<!-- Created with Inkscape (http://www.inkscape.org/) -->

<svg
   xmlns:dc="http://purl.org/dc/elements/1.1/"
   xmlns:cc="http://creativecommons.org/ns#"
   xmlns:rdf="http://www.w3.org/1999/02/22-rdf-syntax-ns#"
   xmlns:svg="http://www.w3.org/2000/svg"
   xmlns="http://www.w3.org/2000/svg"
   version="1.1"
   width="373.75"
   height="262.5"
   id="svg26069">
  <defs
     id="defs26071" />
  <metadata
     id="metadata26074">
    <rdf:RDF>
      <cc:Work
         rdf:about="">
        <dc:format>image/svg+xml</dc:format>
        <dc:type
           rdf:resource="http://purl.org/dc/dcmitype/StillImage" />
        <dc:title></dc:title>
      </cc:Work>
    </rdf:RDF>
  </metadata>
  <g
     transform="translate(-193.125,-326.84375)"
     id="layer1">
    <text
       x="505.45322"
       y="381.49704"
       transform="scale(0.9993748,1.0006256)"
       id="text15318"
       style="font-size:14.99062157px">
      <tspan
         x="505.45322 510.33124"
         y="381.49704"
         id="tspan15320"
         style="font-size:8.77338696px;font-variant:normal;font-weight:normal;writing-mode:lr-tb;fill:#000000;fill-opacity:1;fill-rule:nonzero;stroke:none;font-family:Helvetica;-inkscape-font-specification:Helvetica">ge</tspan>
    </text>
    <text
       x="515.02496"
       y="381.49704"
       transform="scale(0.9993748,1.0006256)"
       id="text15324"
       style="font-size:14.99062157px">
      <tspan
         x="515.02496 521.35938 526.23737 531.11536 535.50201 539.88873 544.76678 547.20575"
         y="381.49704"
         id="tspan15326"
         style="font-size:8.77338696px;font-variant:normal;font-weight:normal;writing-mode:lr-tb;fill:#000000;fill-opacity:1;fill-rule:nonzero;stroke:none;font-family:Helvetica;-inkscape-font-specification:Helvetica">wünschte</tspan>
    </text>
    <text
       x="521.85071"
       y="392.15659"
       transform="scale(0.9993748,1.0006256)"
       id="text15330"
       style="font-size:14.99062157px">
      <tspan
         x="521.85071 528.67645 533.55444 538.43243 540.38013 542.32782 544.76685 549.64484"
         y="392.15659"
         id="tspan15332"
         style="font-size:8.77338696px;font-variant:normal;font-weight:normal;writing-mode:lr-tb;fill:#000000;fill-opacity:1;fill-rule:nonzero;stroke:none;font-family:Helvetica;-inkscape-font-specification:Helvetica">Qualität</tspan>
    </text>
    <text
       x="522.83337"
       y="402.79883"
       transform="scale(0.9993748,1.0006256)"
       id="text15336"
       style="font-size:14.99062157px">
      <tspan
         x="522.83337 527.71136 530.63287 533.55438 538.43243 540.38013 544.76678 549.64478"
         y="402.79883"
         id="tspan15338"
         style="font-size:8.77338696px;font-variant:normal;font-weight:normal;writing-mode:lr-tb;fill:#000000;fill-opacity:1;fill-rule:nonzero;stroke:none;font-family:Helvetica;-inkscape-font-specification:Helvetica">erreicht</tspan>
    </text>
    <path
       d="m 283.51004,361.20141 -90.08202,0 0,-28.88369 90.08202,0 0,28.88369 z m 52.9139,52.3272 -69.57414,0 0,-39.27911 69.57414,0 0,39.27911 z m 71.22485,46.74642 -82.75834,0 0,-28.88643 82.75834,0 0,28.88643 z m -66.17091,43.88063 -88.1593,0 0,-28.81364 88.1593,0 0,28.81364 z m 125.85729,57.2847 -116.0812,0 0,-49.67716 116.0812,0 0,49.67716 z m 84.95531,-57.62966 -82.84853,0 0,-28.88494 82.84853,0 0,28.88494 z m 14.2815,-47.16395 -77.72313,0 0,-28.88494 77.72313,0 0,28.88494 z m -85.96231,-43.11814 -81.29163,0 0,-39.27911 81.29163,0 0,39.27911 z m -72.13928,-47.09366 -77.26466,0 0,-39.27923 77.26466,0 0,39.27923 z"
       id="path15342"
       style="fill:none;stroke:#000000;stroke-width:0.62666237;stroke-linecap:butt;stroke-linejoin:miter;stroke-miterlimit:4;stroke-opacity:1;stroke-dasharray:none" />
    <path
       d="m 328.36812,341.31982 -12.35775,-12.14125 0,9.21025 c -6.35413,-0.2395 -13.15425,0.54938 -18.40113,4.466 l -1.37287,1.04463 -1.28138,1.11625 -1.00825,1.25662 -0.91437,1.32563 -0.73275,1.32562 -0.54863,1.46475 -0.367,1.53513 -0.0914,1.466 0,18.90725 5.03401,0 0,-18.90725 0.0926,-0.908 0.27438,-0.90663 0.45837,-0.90687 c 1.339,-2.09813 1.78988,-2.49688 3.9355,-3.76738 4.50175,-2.57587 9.85763,-2.88812 14.92288,-2.72137 l 0,9.21025 12.35775,-12.06963 z"
       id="path15344"
       style="fill:#666666;fill-opacity:1;fill-rule:nonzero;stroke:none" />
    <path
       d="m 328.36764,341.31851 -12.35771,-12.14114 0,9.2103 c -6.35411,-0.23952 -13.1542,0.54921 -18.40115,4.46594 l -1.37275,1.04465 -1.28145,1.11621 -1.00824,1.25666 -0.9143,1.32559 -0.73279,1.32558 -0.54865,1.46492 -0.3669,1.53498 -0.0914,1.46603 0,18.90729 5.03396,0 0,-18.90729 0.0927,-0.90793 0.27433,-0.90683 0.45834,-0.9067 c 1.33904,-2.09819 1.79,-2.49694 3.93553,-3.76736 4.50166,-2.576 9.85753,-2.8882 14.92283,-2.72148 l 0,9.2103 12.35771,-12.06972 z"
       id="path15348"
       style="fill:none;stroke:#000000;stroke-width:0.62666237;stroke-linecap:butt;stroke-linejoin:miter;stroke-miterlimit:4;stroke-opacity:1;stroke-dasharray:none" />
    <path
       d="m 469.71587,528.50782 15.10575,9.41975 0,-7.18612 c 7.57662,0.14675 15.42387,-0.33988 22.42937,-3.49025 11.32675,-5.1695 6.616,-10.11325 7.598,-22.74225 l -6.135,0 0,14.58037 -0.0915,0.76888 -0.273,0.69725 -0.54862,0.696 c -0.8655,1.08987 -3.55725,2.55087 -4.85238,2.93337 -5.68912,2.10075 -12.146,2.12325 -18.12687,2.09313 l 0,-7.18863 -15.10575,9.4185 z"
       id="path15350"
       style="fill:#d9d9d9;fill-opacity:1;fill-rule:nonzero;stroke:none" />
    <path
       d="m 469.71517,528.50687 15.1056,9.4198 0,-7.18615 c 7.57672,0.14673 15.4239,-0.33984 22.42948,-3.4902 11.32674,-5.1695 6.61595,-10.11336 7.59784,-22.74244 l -6.13489,0 0,14.58055 -0.0914,0.76874 -0.27309,0.69731 -0.54865,0.69607 c -0.86545,1.08981 -3.55726,2.55086 -4.85231,2.93335 -5.68904,2.1007 -12.14598,2.12321 -18.12695,2.09318 l 0,-7.18865 -15.1056,9.41844 z"
       id="path15354"
       style="fill:none;stroke:#000000;stroke-width:0.62666237;stroke-linecap:butt;stroke-linejoin:miter;stroke-miterlimit:4;stroke-opacity:1;stroke-dasharray:none" />
    <path
       d="m 293.58087,415.90157 -10.61913,8.93063 8.05638,0 c -0.2705,4.59262 0.72025,9.73075 3.93687,13.18712 l 0.91425,1.04475 1.00713,0.83775 1.0985,0.7675 1.0985,0.62838 1.2825,0.55925 1.18875,0.3475 1.28262,0.27962 1.374,0.0689 16.56875,0 0,-3.62688 -16.56875,0 -0.82412,-0.0715 -0.82425,-0.138 -0.73275,-0.34987 c -1.4605,-0.47525 -2.48625,-1.6805 -3.38688,-2.86063 -2.25075,-3.218 -2.45125,-6.87262 -2.37987,-10.67387 l 8.14787,0 -10.62037,-8.93063 z"
       id="path15356"
       style="fill:#666666;fill-opacity:1;fill-rule:nonzero;stroke:none" />
    <path
       d="m 293.58044,415.90047 -10.61905,8.93063 8.05643,0 c -0.27059,4.59276 0.72016,9.73075 3.93676,13.18717 l 0.9143,1.04466 1.00711,0.83778 1.09844,0.76747 1.09842,0.6284 1.2827,0.55935 1.18863,0.34735 1.28269,0.27968 1.37401,0.0689 16.56867,0 0,-3.6269 -16.56867,0 -0.82424,-0.0714 -0.8241,-0.13796 -0.73279,-0.34984 c -1.46045,-0.47543 -2.48631,-1.68056 -3.38686,-2.86069 -2.25084,-3.21815 -2.45121,-6.8727 -2.37987,-10.67396 l 8.14786,0 -10.62044,-8.93063 z"
       id="path15360"
       style="fill:none;stroke:#000000;stroke-width:0.62666237;stroke-linecap:butt;stroke-linejoin:miter;stroke-miterlimit:4;stroke-opacity:1;stroke-dasharray:none" />
    <path
       d="m 408.83812,437.80845 9.52187,8.582 0,-5.58088 c 5.986,0.2445 11.645,-0.138 16.84438,-3.41875 8.41962,-5.55587 4.01312,-11.80387 5.21812,-21.4895 l -6.31787,0 0,13.32638 -0.0915,0.55812 -0.0926,0.55813 -0.3645,0.558 -0.36575,0.48787 -0.55112,0.48913 -0.54863,0.48912 c -3.72762,2.52575 -9.39537,2.57725 -13.7305,2.4405 l 0,-5.58087 -9.52187,8.58075 z"
       id="path15362"
       style="fill:#666666;fill-opacity:1;fill-rule:nonzero;stroke:none" />
    <path
       d="m 408.83754,437.80738 9.52188,8.58204 0,-5.58089 c 5.98585,0.24453 11.6449,-0.13796 16.84425,-3.41878 8.41957,-5.55587 4.0131,-11.80393 5.21808,-21.4894 l -6.31776,0 0,13.32626 -0.0915,0.5581 -0.0927,0.5581 -0.36452,0.55811 -0.36577,0.4878 -0.55115,0.48906 -0.54853,0.48918 c -3.72765,2.52585 -9.39545,2.57725 -13.73047,2.44054 l 0,-5.58089 -9.52187,8.58077 z"
       id="path15366"
       style="fill:none;stroke:#000000;stroke-width:0.62666237;stroke-linecap:butt;stroke-linejoin:miter;stroke-miterlimit:4;stroke-opacity:1;stroke-dasharray:none" />
    <path
       d="m 510.72937,426.08782 11.26162,-11.86037 -8.6075,0 c 0.20788,-6.17775 -0.4735,-12.39188 -4.11712,-17.5815 l -1.00963,-1.32563 -1.09725,-1.18512 -1.09962,-1.04725 -1.19,-0.7675 -1.37275,-0.6985 -1.37275,-0.55688 -1.37413,-0.27962 -1.374,-0.13925 -17.57712,0 0,4.88362 18.4965,0 0.82287,0.27838 0.82163,0.41887 c 1.74612,1.02713 2.5515,2.11188 3.57112,3.83763 2.386,4.28025 2.67288,9.36962 2.56263,14.16275 l -8.69763,0 11.35313,11.86037 z"
       id="path15368"
       style="fill:#d9d9d9;fill-opacity:1;fill-rule:nonzero;stroke:none" />
    <path
       d="m 510.72855,426.08663 11.26165,-11.86021 -8.60757,0 c 0.208,-6.1779 -0.47345,-12.39206 -4.11715,-17.5817 l -1.00949,-1.32559 -1.09719,-1.18511 -1.0998,-1.04716 -1.18987,-0.76761 -1.37289,-0.69844 -1.37276,-0.55685 -1.374,-0.27968 -1.37401,-0.13921 -17.57705,0 0,4.88358 18.49635,0 0.82297,0.2783 0.82161,0.41901 c 1.74615,1.02702 2.55152,2.11182 3.57112,3.83754 2.386,4.28032 2.67295,9.36965 2.56263,14.16292 l -8.69763,0 11.35308,11.86021 z"
       id="path15372"
       style="fill:none;stroke:#000000;stroke-width:0.62666237;stroke-linecap:butt;stroke-linejoin:miter;stroke-miterlimit:4;stroke-opacity:1;stroke-dasharray:none" />
    <path
       d="m 439.41412,370.34295 11.35187,-11.86025 -8.605,0 c 0.21913,-6.159 -0.62375,-12.29675 -4.11962,-17.51263 -7.072,-10.13837 -16.059,-4.2465 -27.64888,-5.99975 l 0,4.81463 17.671,0 0.91563,0.0689 0.82412,0.2785 0.823,0.34987 c 1.77238,1.09488 2.48375,2.107 3.56975,3.83763 2.356,4.31162 2.6905,9.34825 2.47125,14.16287 l -8.60375,0 11.35063,11.86025 z"
       id="path15374"
       style="fill:#666666;fill-opacity:1;fill-rule:nonzero;stroke:none" />
    <path
       d="m 439.41352,370.34178 11.35183,-11.86033 -8.60507,0 c 0.21924,-6.159 -0.62373,-12.29674 -4.11965,-17.51265 -7.07191,-10.13827 -16.05888,-4.24643 -27.6487,-5.99978 l 0,4.81465 17.67099,0 0.91555,0.0689 0.82423,0.27843 0.82285,0.34996 c 1.77239,1.09481 2.48382,2.10695 3.56975,3.83755 2.35602,4.31171 2.69055,9.34825 2.47132,14.16291 l -8.6037,0 11.3506,11.86034 z"
       id="path15378"
       style="fill:none;stroke:#000000;stroke-width:0.62666237;stroke-linecap:butt;stroke-linejoin:miter;stroke-miterlimit:4;stroke-opacity:1;stroke-dasharray:none" />
    <path
       d="m 300.44724,504.92657 -17.21137,11.44263 13.27462,0 c -0.38962,6.97675 1.01825,12.683 6.22513,17.58162 l 1.4655,1.25538 1.64837,1.18637 1.7385,0.977 1.83125,0.90675 1.92138,0.627 2.01412,0.49038 2.1055,0.34737 2.10675,0.0715 26.73075,0 0,-4.60637 -28.10475,0 -1.28137,-0.2785 -1.28138,-0.41888 c -2.32212,-0.84025 -3.78637,-1.9075 -5.40225,-3.76737 -3.457,-3.86013 -4.11087,-9.39588 -3.844,-14.37225 l 13.183,0 -17.11975,-11.44263 z"
       id="path15380"
       style="fill:#d9d9d9;fill-opacity:1;fill-rule:nonzero;stroke:none" />
    <path
       d="m 300.44687,504.92565 -17.21128,11.44257 13.27451,0 c -0.38963,6.97678 1.01823,12.68299 6.22508,17.58158 l 1.46557,1.25541 1.64834,1.18637 1.73853,0.97699 1.83122,0.90683 1.92141,0.62701 2.0141,0.49044 2.10555,0.34735 2.10668,0.0714 26.73065,0 0,-4.6064 -28.10466,0 -1.28132,-0.27842 -1.28132,-0.41889 c -2.32229,-0.84028 -3.78649,-1.90745 -5.40234,-3.76738 -3.45695,-3.86017 -4.11079,-9.39591 -3.84407,-14.3723 l 13.18306,0 -17.11971,-11.44257 z"
       id="path15384"
       style="fill:none;stroke:#000000;stroke-width:0.62666237;stroke-linecap:butt;stroke-linejoin:miter;stroke-miterlimit:4;stroke-opacity:1;stroke-dasharray:none" />
    <path
       d="m 288.17987,452.04295 7.23225,0 0,20.44087 7.14075,0 0,-20.44087 7.14075,0 -10.71175,-9.07113 -10.802,9.07113 z"
       id="path15386"
       style="fill:#d9d9d9;fill-opacity:1;fill-rule:nonzero;stroke:none" />
    <path
       d="m 288.17948,452.04185 7.23219,0 0,20.441 7.14087,0 0,-20.441 7.14075,0 -10.71187,-9.07109 -10.80194,9.07109 z"
       id="path15390"
       style="fill:none;stroke:#000000;stroke-width:0.62666237;stroke-linecap:butt;stroke-linejoin:miter;stroke-miterlimit:4;stroke-opacity:1;stroke-dasharray:none" />
    <path
       d="m 247.53373,390.29745 -1.18991,-0.0702 0,0.62712 0.2743,-0.55687 -1.64835,-0.34988 -1.6471,-0.41762 -1.55693,-0.55813 -1.55566,-0.62837 -0.27431,0.55812 0.64005,-0.41887 -1.37279,-0.6985 -1.37406,-0.9055 -1.09723,-0.83775 -1.00705,-0.977 -0.6413,0.34875 0.82418,-0.2095 -0.91562,-1.046 -0.82418,-1.11613 -0.54987,-1.11625 -0.45718,-1.2565 -0.73274,0.20938 0.82417,0 -0.2743,-1.25538 -0.0927,-1.25662 0,-15.97763 -0.82292,0 0,0.62963 4.21106,0 0,-0.62963 -0.73147,0 0,16.74513 0.18286,0.7675 0.0902,0.27975 0.36699,0.69725 c 0.59747,1.18637 1.5469,2.1045 2.56397,2.93087 2.62785,1.638 5.70661,2.5685 8.78789,2.86075 l 0,-1.18775 -0.36574,-0.0689 -1.28261,-0.2095 0,0.62825 0.27556,-0.558 c -1.51057,-0.17437 -4.38392,-1.01212 -5.58512,-1.95387 l -0.36574,0.62825 0.64005,-0.48788 -0.91436,-0.48912 -0.73274,-0.69725 -0.73275,-0.62838 -0.54861,0.48788 0.73148,-0.20825 -0.54986,-0.6985 -0.45719,-0.76625 -0.36573,-0.76875 -0.73275,0.20937 0.82418,0 -0.27432,-0.7675 0,-17.37212 -5.76799,0 c 0.1002,5.42787 -0.7866,13.42037 0.367,19.39625 0.57994,1.78337 1.61829,3.41 2.92846,4.7445 2.96228,3.39237 8.53363,5.28237 12.90878,5.651 l 0,-1.25538 m 4.48539,8.30113 0.64125,0.34987 0.82425,0 0,-8.44162 -3.57104,0 -1.83123,-0.14038 -0.54862,-0.069 0,1.25538 0.54862,0.069 1.83123,0.0703 2.74679,0 0,-0.62713 -0.73263,0 0,9.62675 1.37275,-1.39462 10.346,-10.32525 0.36575,-0.34988 -0.36575,-0.34862 -10.346,-10.25625 -1.37275,-1.39463 0,9.55888 0.73263,0 0,-0.55925 -2.74679,0 -1.37279,-0.069 -1.00706,-0.0715 0,1.18775 1.00706,0.13912 4.85233,0 0.0915,-0.62712 0,-7.81563 -0.82425,0 -0.64125,0.34988 10.43625,10.25625 0.54862,-0.34988 -0.54862,-0.34862 -10.43625,10.32525 z"
       id="path15392"
       style="fill:#000000;fill-opacity:1;fill-rule:nonzero;stroke:none" />
    <path
       d="m 503.86412,469.06607 5.12537,0 0,-10.117 6.2265,0 0,10.117 5.21813,0 -8.23925,3.41763 -8.33075,-3.41763 z"
       id="path15394"
       style="fill:#d9d9d9;fill-opacity:1;fill-rule:nonzero;stroke:none" />
    <path
       d="m 503.86327,469.06507 5.12538,0 0,-10.117 6.22645,0 0,10.117 5.21809,0 -8.23919,3.41753 -8.33073,-3.41753 z"
       id="path15398"
       style="fill:none;stroke:#000000;stroke-width:0.62666237;stroke-linecap:butt;stroke-linejoin:miter;stroke-miterlimit:4;stroke-opacity:1;stroke-dasharray:none" />
    <path
       d="m 388.97274,580.55657 7.96363,0 0,-13.88312 16.38712,0 0,13.88312 7.87225,0 -16.02012,8.4415 -16.20288,-8.4415 z"
       id="path15400"
       style="fill:#999999;fill-opacity:1;fill-rule:nonzero;stroke:none" />
    <path
       d="m 388.97207,580.55576 7.96372,0 0,-13.88324 16.38718,0 0,13.88324 7.87216,0 -16.02003,8.44145 -16.20303,-8.44145 z"
       id="path15404"
       style="fill:none;stroke:#000000;stroke-width:0.62666237;stroke-linecap:butt;stroke-linejoin:miter;stroke-miterlimit:4;stroke-opacity:1;stroke-dasharray:none" />
    <text
       x="209.58"
       y="343.16266"
       transform="scale(0.9993748,1.0006256)"
       id="text15408"
       style="font-size:14.99062157px">
      <tspan
         x="209.58 215.91438 220.79239 223.2314 227.61809 232.49609 235.41763 239.80432 244.68233 246.63002 249.06903 253.94704 258.33371 260.77274 265.65073"
         y="343.16266"
         id="tspan15410"
         style="font-size:8.77338696px;font-variant:normal;font-weight:normal;writing-mode:lr-tb;fill:#000000;fill-opacity:1;fill-rule:nonzero;stroke:none;font-family:Helvetica;-inkscape-font-specification:Helvetica">Netzarchitektur</tspan>
    </text>
    <text
       x="220.78362"
       y="353.82224"
       transform="scale(0.9993748,1.0006256)"
       id="text15414"
       style="font-size:14.99062157px">
      <tspan
         x="220.78362 225.66162 230.53963 232.97862 237.85663 242.73463 247.61266 252.49066"
         y="353.82224"
         id="tspan15416"
         style="font-size:8.77338696px;font-variant:normal;font-weight:normal;writing-mode:lr-tb;fill:#000000;fill-opacity:1;fill-rule:nonzero;stroke:none;font-family:Helvetica;-inkscape-font-specification:Helvetica">aufbauen</tspan>
    </text>
    <text
       x="355.13049"
       y="338.54788"
       transform="scale(0.9993748,1.0006256)"
       id="text15420"
       style="font-size:14.99062157px">
      <tspan
         x="355.13049 360.71039"
         y="338.54788"
         id="tspan15422"
         style="font-size:8.77338696px;font-variant:normal;font-weight:normal;writing-mode:lr-tb;fill:#000000;fill-opacity:1;fill-rule:nonzero;stroke:none;font-family:Helvetica;-inkscape-font-specification:Helvetica">Au</tspan>
    </text>
    <text
       x="365.58844"
       y="338.54788"
       transform="scale(0.9993748,1.0006256)"
       id="text15426"
       style="font-size:14.99062157px">
      <tspan
         x="365.58844 369.9751 374.85312 379.73111 384.60913"
         y="338.54788"
         id="tspan15428"
         style="font-size:8.77338696px;font-variant:normal;font-weight:normal;writing-mode:lr-tb;fill:#000000;fill-opacity:1;fill-rule:nonzero;stroke:none;font-family:Helvetica;-inkscape-font-specification:Helvetica">sgabe</tspan>
    </text>
    <text
       x="350.42795"
       y="349.18997"
       transform="scale(0.9993748,1.0006256)"
       id="text15432"
       style="font-size:14.99062157px">
      <tspan
         x="350.42795 355.30594 360.18396 364.57062 367.00964 373.34402 378.22202 380.66101"
         y="349.18997"
         id="tspan15434"
         style="font-size:8.77338696px;font-variant:normal;font-weight:normal;writing-mode:lr-tb;fill:#000000;fill-opacity:1;fill-rule:nonzero;stroke:none;font-family:Helvetica;-inkscape-font-specification:Helvetica">des Netz</tspan>
    </text>
    <text
       x="384.9249"
       y="349.18997"
       transform="scale(0.9993748,1.0006256)"
       id="text15438"
       style="font-size:14.99062157px">
      <tspan
         x="384.9249 389.80289"
         y="349.18997"
         id="tspan15440"
         style="font-size:8.77338696px;font-variant:normal;font-weight:normal;writing-mode:lr-tb;fill:#000000;fill-opacity:1;fill-rule:nonzero;stroke:none;font-family:Helvetica;-inkscape-font-specification:Helvetica">es</tspan>
    </text>
    <text
       x="351.58603"
       y="359.84085"
       transform="scale(0.9993748,1.0006256)"
       id="text15444"
       style="font-size:14.99062157px">
      <tspan
         x="351.58603 356.46405 361.34204 364.26358 369.1416 373.52829 378.40628 383.28427 388.16229"
         y="359.84085"
         id="tspan15446"
         style="font-size:8.77338696px;font-variant:normal;font-weight:normal;writing-mode:lr-tb;fill:#000000;fill-opacity:1;fill-rule:nonzero;stroke:none;font-family:Helvetica;-inkscape-font-specification:Helvetica">berechnen</tspan>
    </text>
    <text
       x="281.39893"
       y="384.52042"
       transform="scale(0.9993748,1.0006256)"
       id="text15450"
       style="font-size:14.99062157px">
      <tspan
         x="281.39893 285.70667"
         y="384.52042"
         id="tspan15452"
         style="font-size:8.77338696px;font-variant:normal;font-weight:normal;writing-mode:lr-tb;fill:#000000;fill-opacity:1;fill-rule:nonzero;stroke:none;font-family:Helvetica;-inkscape-font-specification:Helvetica">Tr</tspan>
    </text>
    <text
       x="288.5405"
       y="384.52042"
       transform="scale(0.9993748,1.0006256)"
       id="text15456"
       style="font-size:14.99062157px">
      <tspan
         x="288.5405 293.41849 295.36618 300.2442 302.19189 307.06989 311.94788 316.33459"
         y="384.52042"
         id="tspan15458"
         style="font-size:8.77338696px;font-variant:normal;font-weight:normal;writing-mode:lr-tb;fill:#000000;fill-opacity:1;fill-rule:nonzero;stroke:none;font-family:Helvetica;-inkscape-font-specification:Helvetica">ainings-</tspan>
    </text>
    <text
       x="286.96127"
       y="395.17136"
       transform="scale(0.9993748,1.0006256)"
       id="text15462"
       style="font-size:14.99062157px">
      <tspan
         x="286.96127 294.2695 299.14749 303.53418 305.97321 310.8512"
         y="395.17136"
         id="tspan15464"
         style="font-size:8.77338696px;font-variant:normal;font-weight:normal;writing-mode:lr-tb;fill:#000000;fill-opacity:1;fill-rule:nonzero;stroke:none;font-family:Helvetica;-inkscape-font-specification:Helvetica">muster</tspan>
    </text>
    <text
       x="284.72412"
       y="405.83099"
       transform="scale(0.9993748,1.0006256)"
       id="text15468"
       style="font-size:14.99062157px">
      <tspan
         x="284.72412 289.60211 294.4801 296.42783 301.30579 306.18381 311.06183"
         y="405.83099"
         id="tspan15470"
         style="font-size:8.77338696px;font-variant:normal;font-weight:normal;writing-mode:lr-tb;fill:#000000;fill-opacity:1;fill-rule:nonzero;stroke:none;font-family:Helvetica;-inkscape-font-specification:Helvetica">anlegen</tspan>
    </text>
    <text
       x="417.31625"
       y="385.47668"
       transform="scale(0.9993748,1.0006256)"
       id="text15474"
       style="font-size:14.99062157px">
      <tspan
         x="417.31625 422.47501"
         y="385.47668"
         id="tspan15476"
         style="font-size:8.77338696px;font-variant:normal;font-weight:normal;writing-mode:lr-tb;fill:#000000;fill-opacity:1;fill-rule:nonzero;stroke:none;font-family:Helvetica;-inkscape-font-specification:Helvetica">Ve</tspan>
    </text>
    <text
       x="427.35303"
       y="385.47668"
       transform="scale(0.9993748,1.0006256)"
       id="text15480"
       style="font-size:14.99062157px">
      <tspan
         x="427.35303 430.27457 435.15259 437.10028 441.97827 443.92596 448.31265 453.19064 455.62967 462.9379 464.88559"
         y="385.47668"
         id="tspan15482"
         style="font-size:8.77338696px;font-variant:normal;font-weight:normal;writing-mode:lr-tb;fill:#000000;fill-opacity:1;fill-rule:nonzero;stroke:none;font-family:Helvetica;-inkscape-font-specification:Helvetica">rgleich mit</tspan>
    </text>
    <text
       x="423.38742"
       y="396.12762"
       transform="scale(0.9993748,1.0006256)"
       id="text15486"
       style="font-size:14.99062157px">
      <tspan
         x="423.38742 427.69516"
         y="396.12762"
         id="tspan15488"
         style="font-size:8.77338696px;font-variant:normal;font-weight:normal;writing-mode:lr-tb;fill:#000000;fill-opacity:1;fill-rule:nonzero;stroke:none;font-family:Helvetica;-inkscape-font-specification:Helvetica">Tr</tspan>
    </text>
    <text
       x="430.53778"
       y="396.12762"
       transform="scale(0.9993748,1.0006256)"
       id="text15492"
       style="font-size:14.99062157px">
      <tspan
         x="430.53778 435.41577 437.36346 442.24149 444.18918 449.0672 453.94516 458.33188"
         y="396.12762"
         id="tspan15494"
         style="font-size:8.77338696px;font-variant:normal;font-weight:normal;writing-mode:lr-tb;fill:#000000;fill-opacity:1;fill-rule:nonzero;stroke:none;font-family:Helvetica;-inkscape-font-specification:Helvetica">ainings-</tspan>
    </text>
    <text
       x="425.49313"
       y="406.78726"
       transform="scale(0.9993748,1.0006256)"
       id="text15498"
       style="font-size:14.99062157px">
      <tspan
         x="425.49313 430.37112 435.24915 439.63583 444.51382 449.39182 454.26984"
         y="406.78726"
         id="tspan15500"
         style="font-size:8.77338696px;font-variant:normal;font-weight:normal;writing-mode:lr-tb;fill:#000000;fill-opacity:1;fill-rule:nonzero;stroke:none;font-family:Helvetica;-inkscape-font-specification:Helvetica">ausgabe</tspan>
    </text>
    <text
       x="511.32306"
       y="438.6171"
       transform="scale(0.9993748,1.0006256)"
       id="text15504"
       style="font-size:14.99062157px">
      <tspan
         x="511.32306 515.63074"
         y="438.6171"
         id="tspan15506"
         style="font-size:8.77338696px;font-variant:normal;font-weight:normal;writing-mode:lr-tb;fill:#000000;fill-opacity:1;fill-rule:nonzero;stroke:none;font-family:Helvetica;-inkscape-font-specification:Helvetica">Te</tspan>
    </text>
    <text
       x="520.50891"
       y="438.6171"
       transform="scale(0.9993748,1.0006256)"
       id="text15510"
       style="font-size:14.99062157px">
      <tspan
         x="520.50891 524.89557 527.33459 532.21259 537.09058 539.5296 544.40759"
         y="438.6171"
         id="tspan15512"
         style="font-size:8.77338696px;font-variant:normal;font-weight:normal;writing-mode:lr-tb;fill:#000000;fill-opacity:1;fill-rule:nonzero;stroke:none;font-family:Helvetica;-inkscape-font-specification:Helvetica">stdaten</tspan>
    </text>
    <text
       x="514.70087"
       y="449.25919"
       transform="scale(0.9993748,1.0006256)"
       id="text15516"
       style="font-size:14.99062157px">
      <tspan
         x="514.70087 519.57886 524.45691 526.4046 531.28259 536.16058 541.03857"
         y="449.25919"
         id="tspan15518"
         style="font-size:8.77338696px;font-variant:normal;font-weight:normal;writing-mode:lr-tb;fill:#000000;fill-opacity:1;fill-rule:nonzero;stroke:none;font-family:Helvetica;-inkscape-font-specification:Helvetica">anlegen</tspan>
    </text>
    <text
       x="495.14505"
       y="485.70383"
       transform="scale(0.9993748,1.0006256)"
       id="text15522"
       style="font-size:14.99062157px">
      <tspan
         x="495.14505 500.72491"
         y="485.70383"
         id="tspan15524"
         style="font-size:8.77338696px;font-variant:normal;font-weight:normal;writing-mode:lr-tb;fill:#000000;fill-opacity:1;fill-rule:nonzero;stroke:none;font-family:Helvetica;-inkscape-font-specification:Helvetica">Au</tspan>
    </text>
    <text
       x="505.60284"
       y="485.70383"
       transform="scale(0.9993748,1.0006256)"
       id="text15528"
       style="font-size:14.99062157px">
      <tspan
         x="505.60284 509.9895 514.86749 519.74548 524.62354"
         y="485.70383"
         id="tspan15530"
         style="font-size:8.77338696px;font-variant:normal;font-weight:normal;writing-mode:lr-tb;fill:#000000;fill-opacity:1;fill-rule:nonzero;stroke:none;font-family:Helvetica;-inkscape-font-specification:Helvetica">sgabe</tspan>
    </text>
    <text
       x="491.60059"
       y="496.34592"
       transform="scale(0.9993748,1.0006256)"
       id="text15534"
       style="font-size:14.99062157px">
      <tspan
         x="491.60059 496.47858 501.3566 504.27811 509.15613 513.54279 518.42084 523.29883 528.17682"
         y="496.34592"
         id="tspan15536"
         style="font-size:8.77338696px;font-variant:normal;font-weight:normal;writing-mode:lr-tb;fill:#000000;fill-opacity:1;fill-rule:nonzero;stroke:none;font-family:Helvetica;-inkscape-font-specification:Helvetica">berechnen</tspan>
    </text>
    <text
       x="352.54239"
       y="441.9422"
       transform="scale(0.9993748,1.0006256)"
       id="text15540"
       style="font-size:14.99062157px">
      <tspan
         x="352.54239 359.36807"
         y="441.9422"
         id="tspan15542"
         style="font-size:8.77338696px;font-variant:normal;font-weight:normal;writing-mode:lr-tb;fill:#000000;fill-opacity:1;fill-rule:nonzero;stroke:none;font-family:Helvetica;-inkscape-font-specification:Helvetica">Ge</tspan>
    </text>
    <text
       x="364.07059"
       y="441.9422"
       transform="scale(0.9993748,1.0006256)"
       id="text15546"
       style="font-size:14.99062157px">
      <tspan
         x="364.07059 370.40497 372.35266 376.73938 381.61737 384.05637"
         y="441.9422"
         id="tspan15548"
         style="font-size:8.77338696px;font-variant:normal;font-weight:normal;writing-mode:lr-tb;fill:#000000;fill-opacity:1;fill-rule:nonzero;stroke:none;font-family:Helvetica;-inkscape-font-specification:Helvetica">wichte</tspan>
    </text>
    <text
       x="351.71762"
       y="452.60193"
       transform="scale(0.9993748,1.0006256)"
       id="text15552"
       style="font-size:14.99062157px">
      <tspan
         x="351.71762 356.59561 361.47363 366.35162 371.22961 375.6163 380.00302 384.88101"
         y="452.60193"
         id="tspan15554"
         style="font-size:8.77338696px;font-variant:normal;font-weight:normal;writing-mode:lr-tb;fill:#000000;fill-opacity:1;fill-rule:nonzero;stroke:none;font-family:Helvetica;-inkscape-font-specification:Helvetica">anpassen</tspan>
    </text>
    <text
       x="270.97614"
       y="486.48462"
       transform="scale(0.9993748,1.0006256)"
       id="text15558"
       style="font-size:14.99062157px">
      <tspan
         x="270.97614 277.31055 282.18851 284.62753 289.01422 293.89224 298.77023 301.69177 306.56976 313.87799 318.75601 321.19501 326.073"
         y="486.48462"
         id="tspan15560"
         style="font-size:8.77338696px;font-variant:normal;font-weight:normal;writing-mode:lr-tb;fill:#000000;fill-opacity:1;fill-rule:nonzero;stroke:none;font-family:Helvetica;-inkscape-font-specification:Helvetica">Netzparameter</tspan>
    </text>
    <text
       x="286.18039"
       y="497.14429"
       transform="scale(0.9993748,1.0006256)"
       id="text15564"
       style="font-size:14.99062157px">
      <tspan
         x="286.18039 291.05841 295.9364 300.81442 305.69241"
         y="497.14429"
         id="tspan15566"
         style="font-size:8.77338696px;font-variant:normal;font-weight:normal;writing-mode:lr-tb;fill:#000000;fill-opacity:1;fill-rule:nonzero;stroke:none;font-family:Helvetica;-inkscape-font-specification:Helvetica">änder</tspan>
    </text>
    <text
       x="308.82455"
       y="497.14429"
       transform="scale(0.9993748,1.0006256)"
       id="text15570"
       style="font-size:14.99062157px">
      <tspan
         x="308.82455"
         y="497.14429"
         id="tspan15572"
         style="font-size:8.77338696px;font-variant:normal;font-weight:normal;writing-mode:lr-tb;fill:#000000;fill-opacity:1;fill-rule:nonzero;stroke:none;font-family:Helvetica;-inkscape-font-specification:Helvetica">n</tspan>
    </text>
    <text
       x="374.48462"
       y="523.87683"
       transform="scale(0.9993748,1.0006256)"
       id="text15576"
       style="font-size:14.99062157px">
      <tspan
         x="374.48462 380.819 385.69699 388.13599 392.52271"
         y="523.87683"
         id="tspan15578"
         style="font-size:8.77338696px;font-variant:normal;font-weight:normal;writing-mode:lr-tb;fill:#000000;fill-opacity:1;fill-rule:nonzero;stroke:none;font-family:Helvetica;-inkscape-font-specification:Helvetica">Netzf</tspan>
    </text>
    <text
       x="394.69849"
       y="523.87683"
       transform="scale(0.9993748,1.0006256)"
       id="text15582"
       style="font-size:14.99062157px">
      <tspan
         x="394.69849 399.57648 404.4545 406.40219 411.28018 414.20172 416.64075 421.51874 426.39676 429.31827 433.70496"
         y="523.87683"
         id="tspan15584"
         style="font-size:8.77338696px;font-variant:normal;font-weight:normal;writing-mode:lr-tb;fill:#000000;fill-opacity:1;fill-rule:nonzero;stroke:none;font-family:Helvetica;-inkscape-font-specification:Helvetica">ehler durch</tspan>
    </text>
    <text
       x="381.52963"
       y="534.51892"
       transform="scale(0.9993748,1.0006256)"
       id="text15588"
       style="font-size:14.99062157px">
      <tspan
         x="381.52963 386.6796"
         y="534.51892"
         id="tspan15590"
         style="font-size:8.77338696px;font-variant:normal;font-weight:normal;writing-mode:lr-tb;fill:#000000;fill-opacity:1;fill-rule:nonzero;stroke:none;font-family:Helvetica;-inkscape-font-specification:Helvetica">Ve</tspan>
    </text>
    <text
       x="391.55753"
       y="534.51892"
       transform="scale(0.9993748,1.0006256)"
       id="text15594"
       style="font-size:14.99062157px">
      <tspan
         x="391.55753 394.47906 399.35706 401.30475 406.18277 408.13046 412.51715 417.39514 419.83414 427.1424 429.09009"
         y="534.51892"
         id="tspan15596"
         style="font-size:8.77338696px;font-variant:normal;font-weight:normal;writing-mode:lr-tb;fill:#000000;fill-opacity:1;fill-rule:nonzero;stroke:none;font-family:Helvetica;-inkscape-font-specification:Helvetica">rgleich mit</tspan>
    </text>
    <text
       x="386.67084"
       y="545.17859"
       transform="scale(0.9993748,1.0006256)"
       id="text15600"
       style="font-size:14.99062157px">
      <tspan
         x="386.67084 391.54886 394.47037"
         y="545.17859"
         id="tspan15602"
         style="font-size:8.77338696px;font-variant:normal;font-weight:normal;writing-mode:lr-tb;fill:#000000;fill-opacity:1;fill-rule:nonzero;stroke:none;font-family:Helvetica;-inkscape-font-specification:Helvetica">erw</tspan>
    </text>
    <text
       x="400.6731"
       y="545.17859"
       transform="scale(0.9993748,1.0006256)"
       id="text15606"
       style="font-size:14.99062157px">
      <tspan
         x="400.6731 405.55112"
         y="545.17859"
         id="tspan15608"
         style="font-size:8.77338696px;font-variant:normal;font-weight:normal;writing-mode:lr-tb;fill:#000000;fill-opacity:1;fill-rule:nonzero;stroke:none;font-family:Helvetica;-inkscape-font-specification:Helvetica">ar</tspan>
    </text>
    <text
       x="408.83234"
       y="545.17859"
       transform="scale(0.9993748,1.0006256)"
       id="text15612"
       style="font-size:14.99062157px">
      <tspan
         x="408.83234 411.27133 416.14932 418.58832 423.46634"
         y="545.17859"
         id="tspan15614"
         style="font-size:8.77338696px;font-variant:normal;font-weight:normal;writing-mode:lr-tb;fill:#000000;fill-opacity:1;fill-rule:nonzero;stroke:none;font-family:Helvetica;-inkscape-font-specification:Helvetica">teter</tspan>
    </text>
    <text
       x="371.20331"
       y="555.82068"
       transform="scale(0.9993748,1.0006256)"
       id="text15618"
       style="font-size:14.99062157px">
      <tspan
         x="371.20331 376.79196"
         y="555.82068"
         id="tspan15620"
         style="font-size:8.77338696px;font-variant:normal;font-weight:normal;writing-mode:lr-tb;fill:#000000;fill-opacity:1;fill-rule:nonzero;stroke:none;font-family:Helvetica;-inkscape-font-specification:Helvetica">Au</tspan>
    </text>
    <text
       x="381.66998"
       y="555.82068"
       transform="scale(0.9993748,1.0006256)"
       id="text15624"
       style="font-size:14.99062157px">
      <tspan
         x="381.66998 386.05667 390.93466 395.81268 400.69067 405.56866 408.00766 412.88568"
         y="555.82068"
         id="tspan15626"
         style="font-size:8.77338696px;font-variant:normal;font-weight:normal;writing-mode:lr-tb;fill:#000000;fill-opacity:1;fill-rule:nonzero;stroke:none;font-family:Helvetica;-inkscape-font-specification:Helvetica">sgabe er</tspan>
    </text>
    <text
       x="416.02658"
       y="555.82068"
       transform="scale(0.9993748,1.0006256)"
       id="text15630"
       style="font-size:14.99062157px">
      <tspan
         x="416.02658 423.33481 425.2825 427.7215 430.16049 435.03851 436.98621"
         y="555.82068"
         id="tspan15632"
         style="font-size:8.77338696px;font-variant:normal;font-weight:normal;writing-mode:lr-tb;fill:#000000;fill-opacity:1;fill-rule:nonzero;stroke:none;font-family:Helvetica;-inkscape-font-specification:Helvetica">mitteln</tspan>
    </text>
    <text
       x="451.07623"
       y="425.23764"
       transform="scale(0.9993748,1.0006256)"
       id="text15636"
       style="font-size:14.99062157px">
      <tspan
         x="451.07623 456.17358"
         y="425.23764"
         id="tspan15638"
         style="font-size:8.77338696px;font-variant:normal;font-weight:normal;writing-mode:lr-tb;fill:#000000;fill-opacity:1;fill-rule:nonzero;stroke:none;font-family:Helvetica;-inkscape-font-specification:Helvetica">Fe</tspan>
    </text>
    <text
       x="461.05161"
       y="425.23764"
       transform="scale(0.9993748,1.0006256)"
       id="text15642"
       style="font-size:14.99062157px">
      <tspan
         x="461.05161 465.9296 467.87732 472.75531"
         y="425.23764"
         id="tspan15644"
         style="font-size:8.77338696px;font-variant:normal;font-weight:normal;writing-mode:lr-tb;fill:#000000;fill-opacity:1;fill-rule:nonzero;stroke:none;font-family:Helvetica;-inkscape-font-specification:Helvetica">hler</tspan>
    </text>
    <text
       x="451.07623"
       y="435.87982"
       transform="scale(0.9993748,1.0006256)"
       id="text15648"
       style="font-size:14.99062157px">
      <tspan
         x="451.07623 455.46295 460.34097 462.77997 467.65793 472.53595 476.92264"
         y="435.87982"
         id="tspan15650"
         style="font-size:8.77338696px;font-variant:normal;font-weight:normal;writing-mode:lr-tb;fill:#000000;fill-opacity:1;fill-rule:nonzero;stroke:none;font-family:Helvetica;-inkscape-font-specification:Helvetica">zu hoch</tspan>
    </text>
    <text
       x="306.06097"
       y="552.49554"
       transform="scale(0.9993748,1.0006256)"
       id="text15654"
       style="font-size:14.99062157px">
      <tspan
         x="306.06097 311.15829"
         y="552.49554"
         id="tspan15656"
         style="font-size:8.77338696px;font-variant:normal;font-weight:normal;writing-mode:lr-tb;fill:#000000;fill-opacity:1;fill-rule:nonzero;stroke:none;font-family:Helvetica;-inkscape-font-specification:Helvetica">Fe</tspan>
    </text>
    <text
       x="316.03632"
       y="552.49554"
       transform="scale(0.9993748,1.0006256)"
       id="text15660"
       style="font-size:14.99062157px">
      <tspan
         x="316.03632 320.91434 322.862 327.74002"
         y="552.49554"
         id="tspan15662"
         style="font-size:8.77338696px;font-variant:normal;font-weight:normal;writing-mode:lr-tb;fill:#000000;fill-opacity:1;fill-rule:nonzero;stroke:none;font-family:Helvetica;-inkscape-font-specification:Helvetica">hler</tspan>
    </text>
    <text
       x="306.06097"
       y="563.14655"
       transform="scale(0.9993748,1.0006256)"
       id="text15666"
       style="font-size:14.99062157px">
      <tspan
         x="306.06097 310.44766 315.32565 317.76465 322.64264 327.52066 331.90735"
         y="563.14655"
         id="tspan15668"
         style="font-size:8.77338696px;font-variant:normal;font-weight:normal;writing-mode:lr-tb;fill:#000000;fill-opacity:1;fill-rule:nonzero;stroke:none;font-family:Helvetica;-inkscape-font-specification:Helvetica">zu hoch</tspan>
    </text>
    <text
       x="431.73965"
       y="573.96399"
       transform="scale(0.9993748,1.0006256)"
       id="text15672"
       style="font-size:14.99062157px">
      <tspan
         x="431.73965 436.61765"
         y="573.96399"
         id="tspan15674"
         style="font-size:8.77338696px;font-variant:normal;font-weight:normal;writing-mode:lr-tb;fill:#000000;fill-opacity:1;fill-rule:nonzero;stroke:none;font-family:Helvetica;-inkscape-font-specification:Helvetica">ge</tspan>
    </text>
    <text
       x="441.32901"
       y="573.96399"
       transform="scale(0.9993748,1.0006256)"
       id="text15678"
       style="font-size:14.99062157px">
      <tspan
         x="441.32901 447.66342 452.54144 457.41943 461.80612 466.19281 471.07083 473.5098"
         y="573.96399"
         id="tspan15680"
         style="font-size:8.77338696px;font-variant:normal;font-weight:normal;writing-mode:lr-tb;fill:#000000;fill-opacity:1;fill-rule:nonzero;stroke:none;font-family:Helvetica;-inkscape-font-specification:Helvetica">wünschte</tspan>
    </text>
    <text
       x="431.73965"
       y="584.62372"
       transform="scale(0.9993748,1.0006256)"
       id="text15684"
       style="font-size:14.99062157px">
      <tspan
         x="431.73965 438.56534 443.44336 448.32135 450.26904 452.21677 454.65573 459.53372 461.97275 464.41174 469.28973 472.2113 475.13284 480.01083 481.9585 486.34521 491.22324"
         y="584.62372"
         id="tspan15686"
         style="font-size:8.77338696px;font-variant:normal;font-weight:normal;writing-mode:lr-tb;fill:#000000;fill-opacity:1;fill-rule:nonzero;stroke:none;font-family:Helvetica;-inkscape-font-specification:Helvetica">Qualität erreicht</tspan>
    </text>
  </g>
</svg>
